<svg id="Layer_3" enable-background="new 0 0 64 64" height="512" viewBox="0 0 64 64" width="512" xmlns="http://www.w3.org/2000/svg"><path d="m51 21c0-11.055-9.441-19.905-20.701-18.926-9.882.859-17.299 9.462-17.299 19.381v.033c0 4.27 1.094 8.468 3.176 12.196l15.824 26.316 15.824-26.316c2.082-3.727 3.176-7.926 3.176-12.195z" fill="#2b74ca"/><path d="m45 15.5c0-3.516-.691-6.87-1.935-9.94-3.541-2.542-7.988-3.901-12.766-3.486-9.882.859-17.299 9.462-17.299 19.381v.033c0 4.27 1.094 8.468 3.176 12.196l4.923 8.187c13.416-1.306 23.901-12.613 23.901-26.371z" fill="#3d98f7"/><circle cx="32" cy="21" fill="#fff" r="15"/><path d="m38 20h-12v-8h12l-4 4z" fill="#3d98f7"/><g fill="#8892a0"><path d="m12 60h40v2h-40z"/><path d="m26 12h2v18h-2z"/></g></svg>