<svg id="Capa_1" data-name="Capa 1" xmlns="http://www.w3.org/2000/svg" viewBox="0 0 590 172.62"><defs><style>.cls-1,.cls-2{fill:#fff;}.cls-2{font-size:62.75px;font-family:ArialNarrow, Arial;}</style></defs><title>finanteka</title><path id="Luna_superior" data-name="Luna superior" class="cls-1" d="M21,73c-.5-.09-.84-16.69,8-34A73.32,73.32,0,0,1,42,21,71.64,71.64,0,0,1,68,4,71.62,71.62,0,0,1,90,0a69.33,69.33,0,0,1,23,2,69.08,69.08,0,0,1,21,10,68.14,68.14,0,0,1,17,15,72.43,72.43,0,0,1,8,13,65,65,0,0,1,5,12,75.79,75.79,0,0,1,2,9,69.66,69.66,0,0,1,1,8,63.86,63.86,0,0,1,0,8,73.74,73.74,0,0,1-1,8,83.5,83.5,0,0,1-2,10c-1.38,4.78-3.14,7.92-6,13a72,72,0,0,1-8,12,65.81,65.81,0,0,1-8,8c-.64.55-6.45,5.55-7,5-.4-.4,2.25-3.33,8-11,3.75-5,5.65-7.55,7-10a53.22,53.22,0,0,0,5-13,65.81,65.81,0,0,0,2-15,67,67,0,0,0-1-16,64.38,64.38,0,0,0-7-19,70.15,70.15,0,0,0-9-13,65.34,65.34,0,0,0-14-12,66.32,66.32,0,0,0-20-8,79.48,79.48,0,0,0-11-2,54.12,54.12,0,0,0-15,0,65.55,65.55,0,0,0-13,3,69.59,69.59,0,0,0-9,4,69.86,69.86,0,0,0-10,6,63.89,63.89,0,0,0-9,8,61.66,61.66,0,0,0-7,9,61.06,61.06,0,0,0-5,10C22.37,65.35,21.34,73.06,21,73Z" transform="translate(-0.77 0.19)"/><path id="Luna_inferior" data-name="Luna inferior" class="cls-1" d="M35,17c-2.92,2.34-5.28,4.42-7,6a67.78,67.78,0,0,0-7,7,60.76,60.76,0,0,0-5,7,93.2,93.2,0,0,0-5,9A97.77,97.77,0,0,0,6,57,84.29,84.29,0,0,0,3,67,68.79,68.79,0,0,0,1,78,67.8,67.8,0,0,0,1,89c.25,4,.71,7.09,1,9a94.8,94.8,0,0,0,2,10,88.92,88.92,0,0,0,4,12,63.69,63.69,0,0,0,5,10,71.69,71.69,0,0,0,7,9c5.62,6.53,8,9.32,11,12a73.59,73.59,0,0,0,15,10,89.79,89.79,0,0,0,16,7,95.09,95.09,0,0,0,21,4,76.2,76.2,0,0,0,16,0c9-1.05,15.49-3.73,21-6a86.89,86.89,0,0,0,17-9,85.57,85.57,0,0,0,22-22,86.87,86.87,0,0,0,9-17c2.49-6,4.32-10.57,5-17,.52-4.9.61-9.91,0-10s-1.21,4.52-4,12a69.79,69.79,0,0,1-5,11,68.51,68.51,0,0,1-8,11,87.25,87.25,0,0,1-10,10,89.33,89.33,0,0,1-13,9,78.91,78.91,0,0,1-18,8,79.67,79.67,0,0,1-21,3,78.28,78.28,0,0,1-19-2,76.22,76.22,0,0,1-14-5c-5.66-2.52-12-5.32-19-11a72.94,72.94,0,0,1-13-14,86,86,0,0,1-9-15,78.65,78.65,0,0,1-5-14,79.34,79.34,0,0,1-2-14,87.09,87.09,0,0,1,0-15,67.46,67.46,0,0,1,2-12,68.25,68.25,0,0,1,4-11,78.72,78.72,0,0,1,5-9C26.55,28.9,30.17,23.4,35,17Z" transform="translate(-0.77 0.19)"/><path class="cls-1" d="M24,79a28.66,28.66,0,0,1,20-8,32.07,32.07,0,0,1,21,8L44,101Z" transform="translate(-0.77 0.19)"/><circle class="cls-1" cx="43.73" cy="58.69" r="11.5"/><path class="cls-1" d="M67,79a28.66,28.66,0,0,1,20-8,32.07,32.07,0,0,1,21,8L87,101Z" transform="translate(-0.77 0.19)"/><circle class="cls-1" cx="86.73" cy="58.69" r="11.5"/><path class="cls-1" d="M110,79a28.66,28.66,0,0,1,20-8,32.07,32.07,0,0,1,21,8l-21,22Z" transform="translate(-0.77 0.19)"/><circle class="cls-1" cx="129.73" cy="58.69" r="11.5"/><path class="cls-1" d="M28,111a76.15,76.15,0,0,1,17-5,73.6,73.6,0,0,1,16-1c4.23.22,8.55,1.17,17,3,10.52,2.27,8.47,2.29,13,3,8.74,1.38,14.82,1,16,4a4.63,4.63,0,0,1,0,3,5.69,5.69,0,0,1-3,3,10.32,10.32,0,0,1-5,1c-6.47,0-7.44.11-10,0-6-.25-8.93-.37-9,0-.12.63,4.36,2.33,9,3,2.2.32,4.47.2,9,0s5.85-.52,7-1a9.42,9.42,0,0,0,5-4c.57-1,1.73-2.9,1-5a5.39,5.39,0,0,0-3-3c11.78-4.36,20.29-7.54,24-9,0,0,1.23-.49,3-1,3.56-1,5.66-1.62,8-1,.43.11,3.59,1,4,3a4.29,4.29,0,0,1-1,3,9.49,9.49,0,0,1-3,3c-5.8,3.63-26.93,14.27-33,18-.48.3-3.19,2-7,4a43.66,43.66,0,0,1-4,2c-2.92,1.11-5.47.95-12,0-5.59-.82-8.39-1.22-12-2s-7-1.66-12-3c-4.12-1.09-5.32-1.47-8-2a41.1,41.1,0,0,0-9-1,31,31,0,0,0-7,1Z" transform="translate(-0.77 0.19)"/><path class="cls-1" d="M182.9,97.67h15.69V62.8h15.69V47.12H198.59V34.92s-1.74-3.49,3.49-3.49h15.68V14H200.33S182.9,19.23,182.9,33.17Z" transform="translate(-0.77 0.19)"/><rect class="cls-1" x="223.96" y="14.19" width="15.69" height="83.67"/><path class="cls-1" d="M252.62,97.67h15.69V33.17s5.23-10.45,10.46,0v64.5H296.2v-68S291,14,282.25,14H266.57s-13.95,3.49-13.95,15.69Z" transform="translate(-0.77 0.19)"/><path class="cls-1" d="M304.91,97.67H320.6V33.17s5.23-10.45,10.46,0v64.5h17.43v-68S343.26,14,334.55,14H318.86s-13.95,3.49-13.95,15.69Z" transform="translate(-0.77 0.19)"/><rect class="cls-1" x="319.83" y="58.76" width="10.46" height="16.43"/><path class="cls-1" d="M358.33,97.67H374V33.17s5.23-10.45,10.46,0v64.5H401.9v-68S396.67,14,388,14H372.27s-13.94,3.49-13.94,15.69Z" transform="translate(-0.77 0.19)"/><polyline class="cls-1" points="405.24 14.19 405.24 31.62 415.7 31.62 415.7 97.85 433.13 97.85 433.13 31.62 447.07 31.62 447.07 14.19"/><path class="cls-1" d="M486.19,97.67V82H472.25s-7-1.74-7-7V62.8h19.18V47.12H465.27V34.92s0-3.49,7-3.49h13.94V14H465.27s-15.68,5.23-15.68,19.17V82S454.82,97.67,467,97.67Z" transform="translate(-0.77 0.19)"/><path class="cls-1" d="M493.16,97.67V14h15.69V48.86h7l7-34.86h14l-7,41.83s7,3.49,7,14V97.67H521.05V69.78s0-5.23-5.23-5.23h-7V97.67Z" transform="translate(-0.77 0.19)"/><path class="cls-1" d="M547.2,97.67h15.68V33.17s5.23-10.45,10.46,0v64.5h17.43v-68S585.54,14,576.83,14H561.14S547.2,17.49,547.2,29.69Z" transform="translate(-0.77 0.19)"/><rect class="cls-1" x="562.11" y="58.76" width="10.46" height="16.43"/><text class="cls-2" transform="translate(180.01 153.38) scale(1.02 1)">Creciendo Juntos</text></svg>